<?xml version="1.0" encoding="UTF-8" standalone="no"?>
<!-- Created with Inkscape (http://www.inkscape.org/) -->

<svg
   xmlns:dc="http://purl.org/dc/elements/1.1/"
   xmlns:cc="http://creativecommons.org/ns#"
   xmlns:rdf="http://www.w3.org/1999/02/22-rdf-syntax-ns#"
   xmlns:svg="http://www.w3.org/2000/svg"
   xmlns="http://www.w3.org/2000/svg"
   xmlns:sodipodi="http://sodipodi.sourceforge.net/DTD/sodipodi-0.dtd"
   xmlns:inkscape="http://www.inkscape.org/namespaces/inkscape"
   width="1344"
   height="84"
   viewBox="0 0 355.59998 22.225"
   version="1.1"
   id="svg8831"
   inkscape:version="0.92.3 (2405546, 2018-03-11)"
   sodipodi:docname="gear.svg">
  <defs
     id="defs8825" />
  <sodipodi:namedview
     id="base"
     pagecolor="#ffffff"
     bordercolor="#666666"
     borderopacity="1.0"
     inkscape:pageopacity="0"
     inkscape:pageshadow="2"
     inkscape:zoom="0.7"
     inkscape:cx="745.14426"
     inkscape:cy="89.982945"
     inkscape:document-units="px"
     inkscape:current-layer="layer13"
     showgrid="true"
     units="px"
     inkscape:window-width="1920"
     inkscape:window-height="1025"
     inkscape:window-x="0"
     inkscape:window-y="27"
     inkscape:window-maximized="1"
     inkscape:snap-bbox="true"
     inkscape:snap-bbox-midpoints="true"
     inkscape:snap-nodes="false"
     inkscape:pagecheckerboard="true">
    <inkscape:grid
       type="xygrid"
       id="grid11626"
       empspacing="2"
       spacingx="11.1125"
       spacingy="11.1125" />
  </sodipodi:namedview>
  <metadata
     id="metadata8828">
    <rdf:RDF>
      <cc:Work
         rdf:about="">
        <dc:format>image/svg+xml</dc:format>
        <dc:type
           rdf:resource="http://purl.org/dc/dcmitype/StillImage" />
        <dc:title></dc:title>
      </cc:Work>
    </rdf:RDF>
  </metadata>
  <g
     inkscape:groupmode="layer"
     id="layer13"
     inkscape:label="background">
    <circle
       style="opacity:1;vector-effect:none;fill:#ffffff;fill-opacity:1;stroke:none;stroke-width:0.26224187;stroke-linecap:round;stroke-linejoin:round;stroke-miterlimit:4;stroke-dasharray:none;stroke-dashoffset:0;stroke-opacity:0.50196078"
       id="path11901"
       cx="11.1125"
       cy="11.112499"
       r="10.981379" />
    <circle
       style="opacity:1;vector-effect:none;fill:#ffffff;fill-opacity:1;stroke:none;stroke-width:0.26224187;stroke-linecap:round;stroke-linejoin:round;stroke-miterlimit:4;stroke-dasharray:none;stroke-dashoffset:0;stroke-opacity:0.50196078"
       id="path11901-5"
       cx="33.337502"
       cy="11.112499"
       r="10.981379" />
    <circle
       style="opacity:1;vector-effect:none;fill:#ffffff;fill-opacity:1;stroke:none;stroke-width:0.26224187;stroke-linecap:round;stroke-linejoin:round;stroke-miterlimit:4;stroke-dasharray:none;stroke-dashoffset:0;stroke-opacity:0.50196078"
       id="path11901-7"
       cx="55.5625"
       cy="11.112499"
       r="10.981379" />
    <circle
       style="opacity:1;vector-effect:none;fill:#ffffff;fill-opacity:1;stroke:none;stroke-width:0.26224187;stroke-linecap:round;stroke-linejoin:round;stroke-miterlimit:4;stroke-dasharray:none;stroke-dashoffset:0;stroke-opacity:0.50196078"
       id="path11901-5-8"
       cx="77.787498"
       cy="11.112499"
       r="10.981379" />
    <circle
       style="opacity:1;vector-effect:none;fill:#ffffff;fill-opacity:1;stroke:none;stroke-width:0.26224187;stroke-linecap:round;stroke-linejoin:round;stroke-miterlimit:4;stroke-dasharray:none;stroke-dashoffset:0;stroke-opacity:0.50196078"
       id="path11901-59"
       cx="100.0125"
       cy="11.112499"
       r="10.981379" />
    <circle
       style="opacity:1;vector-effect:none;fill:#ffffff;fill-opacity:1;stroke:none;stroke-width:0.26224187;stroke-linecap:round;stroke-linejoin:round;stroke-miterlimit:4;stroke-dasharray:none;stroke-dashoffset:0;stroke-opacity:0.50196078"
       id="path11901-5-2"
       cx="122.2375"
       cy="11.112499"
       r="10.981379" />
    <circle
       style="opacity:1;vector-effect:none;fill:#ffffff;fill-opacity:1;stroke:none;stroke-width:0.26224187;stroke-linecap:round;stroke-linejoin:round;stroke-miterlimit:4;stroke-dasharray:none;stroke-dashoffset:0;stroke-opacity:0.50196078"
       id="path11901-7-7"
       cx="144.46249"
       cy="11.112499"
       r="10.981379" />
    <circle
       style="opacity:1;vector-effect:none;fill:#ffffff;fill-opacity:1;stroke:none;stroke-width:0.26224187;stroke-linecap:round;stroke-linejoin:round;stroke-miterlimit:4;stroke-dasharray:none;stroke-dashoffset:0;stroke-opacity:0.50196078"
       id="path11901-5-8-3"
       cx="166.6875"
       cy="11.112499"
       r="10.981379" />
    <circle
       style="opacity:1;vector-effect:none;fill:#ffffff;fill-opacity:1;stroke:none;stroke-width:0.26224187;stroke-linecap:round;stroke-linejoin:round;stroke-miterlimit:4;stroke-dasharray:none;stroke-dashoffset:0;stroke-opacity:0.50196078"
       id="path11901-6"
       cx="188.91251"
       cy="11.112499"
       r="10.981379" />
    <circle
       style="opacity:1;vector-effect:none;fill:#ffffff;fill-opacity:1;stroke:none;stroke-width:0.26224187;stroke-linecap:round;stroke-linejoin:round;stroke-miterlimit:4;stroke-dasharray:none;stroke-dashoffset:0;stroke-opacity:0.50196078"
       id="path11901-5-4"
       cx="211.1375"
       cy="11.112499"
       r="10.981379" />
    <circle
       style="opacity:1;vector-effect:none;fill:#ffffff;fill-opacity:1;stroke:none;stroke-width:0.26224187;stroke-linecap:round;stroke-linejoin:round;stroke-miterlimit:4;stroke-dasharray:none;stroke-dashoffset:0;stroke-opacity:0.50196078"
       id="path11901-7-79"
       cx="233.3625"
       cy="11.112499"
       r="10.981379" />
    <circle
       style="opacity:1;vector-effect:none;fill:#ffffff;fill-opacity:1;stroke:none;stroke-width:0.26224187;stroke-linecap:round;stroke-linejoin:round;stroke-miterlimit:4;stroke-dasharray:none;stroke-dashoffset:0;stroke-opacity:0.50196078"
       id="path11901-5-8-7"
       cx="255.58749"
       cy="11.112499"
       r="10.981379" />
    <circle
       style="opacity:1;vector-effect:none;fill:#ffffff;fill-opacity:1;stroke:none;stroke-width:0.26224187;stroke-linecap:round;stroke-linejoin:round;stroke-miterlimit:4;stroke-dasharray:none;stroke-dashoffset:0;stroke-opacity:0.50196078"
       id="path11901-59-2"
       cx="277.8125"
       cy="11.112499"
       r="10.981379" />
    <circle
       style="opacity:1;vector-effect:none;fill:#ffffff;fill-opacity:1;stroke:none;stroke-width:0.26224187;stroke-linecap:round;stroke-linejoin:round;stroke-miterlimit:4;stroke-dasharray:none;stroke-dashoffset:0;stroke-opacity:0.50196078"
       id="path11901-5-2-2"
       cx="300.03751"
       cy="11.112499"
       r="10.981379" />
    <circle
       style="opacity:1;vector-effect:none;fill:#ffffff;fill-opacity:1;stroke:none;stroke-width:0.26224187;stroke-linecap:round;stroke-linejoin:round;stroke-miterlimit:4;stroke-dasharray:none;stroke-dashoffset:0;stroke-opacity:0.50196078"
       id="path11901-7-7-1"
       cx="322.26248"
       cy="11.112499"
       r="10.981379" />
    <circle
       style="opacity:1;vector-effect:none;fill:#ffffff;fill-opacity:1;stroke:none;stroke-width:0.26224187;stroke-linecap:round;stroke-linejoin:round;stroke-miterlimit:4;stroke-dasharray:none;stroke-dashoffset:0;stroke-opacity:0.50196078"
       id="path11901-5-8-3-6"
       cx="344.48749"
       cy="11.112499"
       r="10.981379" />
  </g>
  <g
     inkscape:label="main"
     inkscape:groupmode="layer"
     id="1"
     transform="translate(0,-274.775)"
     sodipodi:insensitive="true">
    <path
       inkscape:connector-curvature="0"
       style="display:inline;opacity:1;vector-effect:none;fill:#be264d;fill-opacity:1;stroke:#6b152b;stroke-width:0.26458332;stroke-linecap:round;stroke-linejoin:round;stroke-miterlimit:4;stroke-dasharray:none;stroke-dashoffset:0;stroke-opacity:1"
       d="m 7.0621957,276.11002 c -0.2752082,0.11399 -0.5182931,0.30538 -0.6954649,0.55991 -0.3543102,0.50914 -0.379544,1.1782 -0.06472,1.71267 l 0.572503,1.09856 c 0.3592632,0.62225 0.255809,1.40813 -0.2522548,1.91619 -0.508068,0.50807 -1.2941292,0.6116 -1.916376,0.25235 l -1.098995,-0.57229 c -0.534464,-0.31482 -1.2029961,-0.28948 -1.712139,0.0648 -0.509147,0.3543 -0.765317,0.97275 -0.655829,1.58331 0.109487,0.61055 0.564285,1.1012 1.1648249,1.2565 l 1.182254,0.37224 c 0.694038,0.18596 1.1764491,0.81452 1.1764459,1.53304 5.1e-6,0.71851 -0.4828278,1.34804 -1.1768609,1.534 l -1.1816259,0.37198 c -0.60053,0.15534 -1.055308,0.64605 -1.164796,1.2566 -0.109489,0.61056 0.146614,1.22885 0.655762,1.58316 0.509147,0.3543 1.17772,0.37974 1.7121869,0.0649 l 1.0990451,-0.57271 c 0.622253,-0.35927 1.408134,-0.25581 1.9161941,0.25226 0.508068,0.50806 0.6115968,1.29413 0.2523479,1.91637 l -0.572289,1.09901 c -0.3148229,0.53446 -0.2894761,1.20299 0.06483,1.71214 0.3542987,0.50914 0.9727517,0.7653 1.5833087,0.65582 0.6105593,-0.10948 1.1012073,-0.56426 1.2565033,-1.16483 l 0.37244,-1.18177 c 0.185955,-0.69405 0.814527,-1.17645 1.533039,-1.17645 0.718515,-10e-6 1.347364,0.48254 1.533327,1.17658 l 0.37246,1.18142 c 0.155309,0.60055 0.646241,1.05579 1.256797,1.16527 0.610553,0.10949 1.228842,-0.14662 1.58315,-0.65576 0.354311,-0.50915 0.379552,-1.17819 0.06472,-1.71266 l -0.572502,-1.09856 c -0.359262,-0.62226 -0.256008,-1.40862 0.252062,-1.91667 0.508064,-0.50806 1.294126,-0.6116 1.916372,-0.25235 l 1.098998,0.57229 c 0.534463,0.31482 1.20319,0.28996 1.712337,-0.0643 0.50915,-0.3543 0.765312,-0.97276 0.655831,-1.58331 -0.10949,-0.61055 -0.564485,-1.10168 -1.165024,-1.25698 l -1.182061,-0.37177 c -0.694038,-0.18596 -1.176646,-0.815 -1.176645,-1.53351 -2e-6,-0.71852 0.483029,-1.34757 1.17706,-1.53353 l 1.181433,-0.37245 c 0.600527,-0.15534 1.055301,-0.64606 1.16479,-1.25661 0.109491,-0.61056 -0.146613,-1.22885 -0.655758,-1.58315 -0.509152,-0.35431 -1.177724,-0.37975 -1.712189,-0.0649 l -1.099046,0.57271 c -0.622254,0.35927 -1.408133,0.25581 -1.916196,-0.25226 -0.508066,-0.50806 -0.611606,-1.29412 -0.252346,-1.91637 l 0.572491,-1.09852 c 0.314822,-0.53446 0.289277,-1.20347 -0.06503,-1.71262 -0.354303,-0.50915 -0.972748,-0.7653 -1.583305,-0.65582 -0.610561,0.10949 -1.10121,0.56427 -1.25651,1.16482 l -0.371762,1.18206 c -0.185958,0.69404 -0.815004,1.17664 -1.533518,1.17664 -0.718515,1e-5 -1.347365,-0.48254 -1.533326,-1.17658 l -0.372458,-1.18142 c -0.155308,-0.60054 -0.646247,-1.05579 -1.2568032,-1.16528 -0.3052749,-0.0547 -0.612477,-0.0181 -0.887686,0.0959 z m 2.7286823,5.20484 a 4.7625003,4.7624998 67.5 0 1 5.486392,2.27491 l -2.475466,1.02537 a 2.1166665,2.1166639 67.5 0 0 -1.983775,-0.82052 z m -0.976625,0.40777 1.025369,2.47546 a 2.1166665,2.1166639 67.5 0 0 -0.820518,1.98379 l -2.4797614,1.02715 a 4.7625003,4.7624998 67.5 0 1 2.2749144,-5.48639 z m -1.8670354,6.46299 2.4754654,-1.02537 a 2.1166665,2.1166639 67.5 0 0 1.983774,0.82052 l 1.027148,2.47975 a 4.7625003,4.7624998 67.5 0 1 -5.4863914,-2.27491 z m 6.2581284,-2.5922 2.479759,-1.02715 a 4.7625003,4.7624998 67.5 0 1 -2.274914,5.48638 l -1.025368,-2.47545 a 2.1166665,2.1166639 67.5 0 0 0.820523,-1.98378 z"
       id="path2000-0-2-0-0-4" />
    <path
       inkscape:connector-curvature="0"
       style="display:inline;opacity:1;vector-effect:none;fill:#be264d;fill-opacity:1;stroke:#6b152b;stroke-width:0.26458332;stroke-linecap:round;stroke-linejoin:round;stroke-miterlimit:4;stroke-dasharray:none;stroke-dashoffset:0;stroke-opacity:1"
       d="m 31.272514,275.50772 c -0.292159,0.0581 -0.567911,0.19839 -0.791335,0.41347 -0.44683,0.43023 -0.602107,1.08152 -0.397602,1.66713 l 0.347184,1.18915 c 0.230965,0.68038 -0.02382,1.43098 -0.621238,1.83015 -0.597425,0.39919 -1.38858,0.34738 -1.928784,-0.12636 l -0.96623,-0.7757 c -0.462776,-0.41304 -1.123406,-0.51861 -1.691883,-0.27046 -0.568484,0.24816 -0.940386,0.80475 -0.952116,1.42494 -0.01173,0.62018 0.338609,1.19012 0.897313,1.4596 l 1.086916,0.59573 c 0.644424,0.31779 0.994939,1.02839 0.85476,1.7331 -0.140169,0.7047 -0.73654,1.22794 -1.453516,1.27493 l -1.231492,0.13431 c -0.619296,0.0352 -1.161068,0.42775 -1.387565,1.00521 -0.226499,0.57747 -0.09594,1.23384 0.334303,1.68068 0.430243,0.44682 1.081007,0.6022 1.666626,0.39768 l 1.189658,-0.34729 c 0.680386,-0.23097 1.430983,0.0238 1.830161,0.62124 0.399188,0.59742 0.347373,1.38858 -0.126366,1.92878 l -0.775699,0.96624 c -0.413042,0.46278 -0.518605,1.12341 -0.270438,1.69189 0.248163,0.56848 0.804759,0.94037 1.424942,0.95211 0.620186,0.0117 1.19013,-0.33858 1.459607,-0.89732 l 0.595836,-1.0864 c 0.317784,-0.64444 1.02839,-0.99494 1.733096,-0.85476 0.704711,0.14016 1.227336,0.73612 1.274325,1.45311 l 0.13482,1.23138 c 0.03516,0.61931 0.427849,1.16158 1.005315,1.38807 0.577461,0.2265 1.233834,0.0959 1.680662,-0.3343 0.446834,-0.43025 0.602113,-1.08151 0.3976,-1.66713 l -0.347183,-1.18914 c -0.230962,-0.68039 0.02372,-1.4315 0.621143,-1.83067 0.597419,-0.39918 1.388577,-0.34737 1.92878,0.12637 l 0.966233,0.77569 c 0.462775,0.41304 1.123503,0.51912 1.691979,0.271 0.568487,-0.24816 0.940383,-0.80476 0.952118,-1.42494 0.01173,-0.62018 -0.338712,-1.19064 -0.897414,-1.46011 l -1.086819,-0.59524 c -0.644423,-0.31779 -0.995039,-1.02889 -0.854863,-1.73359 0.140174,-0.70472 0.736645,-1.22745 1.45362,-1.27444 l 1.231393,-0.1348 c 0.619294,-0.0352 1.161064,-0.42777 1.387562,-1.00523 0.226501,-0.57747 0.09594,-1.23384 -0.334301,-1.68066 -0.430246,-0.44683 -1.081009,-0.60222 -1.666628,-0.39768 l -1.189659,0.34729 c -0.680387,0.23097 -1.430982,-0.0238 -1.830163,-0.62125 -0.399186,-0.59741 -0.347384,-1.38857 0.126368,-1.92877 l 0.775801,-0.96573 c 0.413041,-0.46277 0.518504,-1.12391 0.270335,-1.6924 -0.248165,-0.56849 -0.804754,-0.94037 -1.424938,-0.9521 -0.620189,-0.0117 -1.190134,0.33859 -1.459611,0.8973 l -0.595227,1.08682 c -0.317786,0.64443 -1.028895,0.99503 -1.733603,0.85486 -0.704711,-0.14017 -1.227337,-0.73613 -1.274325,-1.45311 l -0.134817,-1.23138 c -0.03516,-0.6193 -0.427855,-1.16158 -1.005319,-1.38808 -0.288738,-0.11321 -0.597178,-0.13724 -0.889339,-0.0791 z m 1.660837,5.63717 a 4.7625004,4.7624999 78.75 0 1 4.93716,3.30154 l -2.627941,0.52272 a 2.1166665,2.1166639 78.75 0 0 -1.785582,-1.19176 z m -1.037411,0.2094 0.522728,2.62794 a 2.1166665,2.1166639 78.75 0 0 -1.19177,1.78559 l -2.6325,0.52364 a 4.7625004,4.7624999 78.75 0 1 3.301543,-4.93716 z m -3.092028,5.97457 2.62794,-0.52273 a 2.1166665,2.1166639 78.75 0 0 1.78558,1.19177 l 0.523637,2.63249 a 4.7625004,4.7624999 78.75 0 1 -4.937159,-3.30154 z m 6.643593,-1.3215 2.632498,-0.52363 a 4.7625004,4.7624999 78.75 0 1 -3.301541,4.93715 l -0.52273,-2.62793 a 2.1166665,2.1166639 78.75 0 0 1.191773,-1.78559 z"
       id="path2000-0-2-0-0-4-1" />
    <path
       inkscape:connector-curvature="0"
       style="display:inline;opacity:1;vector-effect:none;fill:#be264d;fill-opacity:1;stroke:#6b152b;stroke-width:0.26458332;stroke-linecap:round;stroke-linejoin:round;stroke-miterlimit:4;stroke-dasharray:none;stroke-dashoffset:0;stroke-opacity:1"
       d="m 55.562201,275.30432 c -0.29788,-1e-5 -0.595703,0.0838 -0.856794,0.25115 -0.522178,0.33479 -0.801531,0.94327 -0.715203,1.55752 l 0.108522,1.23404 c 0.09379,0.71236 -0.302533,1.39883 -0.966346,1.67378 -0.663824,0.27497 -1.429669,0.0698 -1.867071,-0.50022 l -0.796333,-0.94929 c -0.373304,-0.49539 -1.000644,-0.72781 -1.60661,-0.59534 -0.605974,0.13249 -1.079316,0.60583 -1.211813,1.21182 -0.132496,0.60597 0.09992,1.23331 0.595317,1.60661 l 0.94981,0.79633 c 0.570044,0.4374 0.775193,1.20273 0.500225,1.86655 -0.274955,0.66381 -0.961946,1.06065 -1.674313,0.96687 l -1.234032,-0.10853 c -0.614264,-0.0863 -1.222208,0.19302 -1.55701,0.7152 -0.334806,0.52218 -0.334807,1.19141 -5e-6,1.7136 0.334806,0.52217 0.942752,0.80153 1.557019,0.71519 l 1.234552,-0.10853 c 0.712372,-0.0938 1.398844,0.30251 1.673797,0.96635 0.274967,0.66382 0.0698,1.42967 -0.500224,1.86707 l -0.949299,0.79634 c -0.495389,0.37331 -0.727806,1.00065 -0.595313,1.60662 0.13249,0.60597 0.605839,1.0793 1.211815,1.21181 0.605987,0.13246 1.233316,-0.0999 1.606619,-0.59533 l 0.796334,-0.94928 c 0.437402,-0.57006 1.202733,-0.77519 1.86655,-0.50023 0.663827,0.27495 1.060143,0.96142 0.966352,1.6738 l -0.108001,1.23402 c -0.08634,0.61427 0.193015,1.22273 0.715199,1.55753 0.522177,0.3348 1.191417,0.33477 1.713587,0 0.522186,-0.33481 0.801536,-0.94326 0.715201,-1.55753 l -0.108522,-1.23402 c -0.09379,-0.71237 0.302536,-1.39936 0.966354,-1.67431 0.663816,-0.27496 1.429664,-0.0698 1.867066,0.50022 l 0.796337,0.94929 c 0.373303,0.49539 1.00064,0.72833 1.606599,0.59588 0.605977,-0.13248 1.079314,-0.60583 1.211815,-1.21181 0.132496,-0.60597 -0.09992,-1.23384 -0.595317,-1.60713 l -0.949811,-0.79583 c -0.570042,-0.4374 -0.775193,-1.20324 -0.50023,-1.86705 0.274965,-0.66384 0.961954,-1.06016 1.67432,-0.96637 l 1.23403,0.10802 c 0.614262,0.0863 1.222209,-0.19303 1.557011,-0.71521 0.334808,-0.52219 0.334807,-1.19142 3e-6,-1.71359 -0.334806,-0.52218 -0.94275,-0.80154 -1.55702,-0.71518 l -1.234553,0.10853 c -0.712374,0.0938 -1.398843,-0.30251 -1.673797,-0.96636 -0.274967,-0.66381 -0.06981,-1.42966 0.500224,-1.86706 l 0.949299,-0.79582 c 0.495386,-0.3733 0.727805,-1.00116 0.595311,-1.60714 -0.13249,-0.60598 -0.605834,-1.0793 -1.211813,-1.2118 -0.605989,-0.13247 -1.233321,0.0999 -1.606619,0.5953 l -0.795818,0.94982 c -0.437402,0.57005 -1.203246,0.77518 -1.867067,0.50022 -0.663825,-0.27496 -1.060143,-0.96142 -0.966352,-1.67379 l 0.108004,-1.23403 c 0.08634,-0.61425 -0.193021,-1.22273 -0.715201,-1.55753 -0.261104,-0.16737 -0.558929,-0.25111 -0.856819,-0.25108 z m 0.529167,5.85287 a 4.7624999,4.7625004 0 0 1 4.198196,4.20129 l -2.679424,-10e-6 a 2.1166639,2.1166665 0 0 0 -1.518772,-1.51721 z m -1.058329,0.003 -2e-6,2.67942 a 2.1166639,2.1166665 0 0 0 -1.517222,1.51878 h -2.684074 a 4.7624999,4.7625004 0 0 1 4.201297,-4.19819 z m -4.198196,5.25654 h 2.679424 a 2.1166639,2.1166665 0 0 0 1.518768,1.51722 l 2e-6,2.68407 a 4.7624999,4.7625004 0 0 1 -4.198194,-4.2013 z m 6.77375,-10e-6 2.68407,10e-6 a 4.7624999,4.7625004 0 0 1 -4.201293,4.19819 l -2e-6,-2.67942 a 2.1166639,2.1166665 0 0 0 1.517225,-1.51878 z"
       id="path2000-0-2-0-0-4-13" />
    <path
       inkscape:connector-curvature="0"
       style="display:inline;opacity:1;vector-effect:none;fill:#be264d;fill-opacity:1;stroke:#6b152b;stroke-width:0.26458332;stroke-linecap:round;stroke-linejoin:round;stroke-miterlimit:4;stroke-dasharray:none;stroke-dashoffset:0;stroke-opacity:1"
       d="m 79.851887,275.50762 c -0.292155,-0.0581 -0.600607,-0.034 -0.889327,0.0792 -0.577461,0.22649 -0.970154,0.76878 -1.005318,1.38807 l -0.134312,1.2315 c -0.04699,0.71697 -0.569617,1.31293 -1.274316,1.45309 -0.704714,0.14018 -1.415816,-0.21045 -1.733607,-0.85485 l -0.595837,-1.08641 c -0.269485,-0.5587 -0.839428,-0.90904 -1.459594,-0.89734 -0.620178,0.0117 -1.176769,0.38363 -1.424943,0.95213 -0.248169,0.56847 -0.142607,1.2291 0.270444,1.69188 l 0.776204,0.96632 c 0.473758,0.54021 0.525656,1.33086 0.126467,1.92828 -0.399175,0.59741 -1.150385,0.8526 -1.830768,0.62165 l -1.189148,-0.3472 c -0.585625,-0.20447 -1.23638,-0.0491 -1.666621,0.3977 -0.430245,0.44683 -0.560806,1.1032 -0.334311,1.68068 0.226502,0.57745 0.768266,0.97005 1.387574,1.0052 l 1.232004,0.13441 c 0.716983,0.047 1.312949,0.5696 1.453109,1.27432 0.140178,0.70471 -0.210456,1.41582 -0.85486,1.73361 l -1.086416,0.59584 c -0.558698,0.26949 -0.909038,0.83943 -0.89731,1.45961 0.01172,0.62017 0.383636,1.17675 0.952118,1.42494 0.568501,0.24813 1.229107,0.14262 1.69189,-0.27046 l 0.966228,-0.77568 c 0.54021,-0.47378 1.330855,-0.52566 1.928274,-0.12647 0.597432,0.39917 0.852209,1.14977 0.621244,1.83016 l -0.346672,1.18924 c -0.204519,0.58562 -0.04924,1.23689 0.397597,1.66713 0.446828,0.43024 1.103214,0.56077 1.680662,0.3343 0.577471,-0.2265 0.970154,-0.76876 1.005318,-1.38807 l 0.134308,-1.23148 c 0.04699,-0.71698 0.569725,-1.31345 1.274429,-1.45361 0.704702,-0.14018 1.415811,0.21045 1.733602,0.85485 l 0.595838,1.08641 c 0.269484,0.5587 0.839323,0.90955 1.459479,0.89786 0.620177,-0.0117 1.176765,-0.38362 1.424943,-0.95211 0.248169,-0.56848 0.14271,-1.22963 -0.270343,-1.69239 l -0.776302,-0.96584 c -0.473757,-0.5402 -0.525558,-1.33135 -0.126376,-1.92876 0.399192,-0.59744 1.150297,-0.85212 1.830677,-0.62116 l 1.189245,0.34669 c 0.585624,0.20448 1.236384,0.0491 1.666625,-0.39771 0.430248,-0.44684 0.560809,-1.10321 0.334307,-1.68066 -0.2265,-0.57747 -0.768263,-0.97006 -1.387576,-1.0052 l -1.232006,-0.1344 c -0.716984,-0.047 -1.312946,-0.56961 -1.453106,-1.27434 -0.140181,-0.7047 0.210434,-1.41581 0.854857,-1.73359 l 1.086314,-0.59533 c 0.558694,-0.26949 0.909137,-0.83994 0.89741,-1.46012 -0.01172,-0.62019 -0.383634,-1.17676 -0.952117,-1.42493 -0.568504,-0.24815 -1.229115,-0.14263 -1.691887,0.27042 l -0.965826,0.77632 c -0.540211,0.47376 -1.331356,0.52554 -1.928782,0.12636 -0.597426,-0.39918 -0.852208,-1.14977 -0.621244,-1.83016 l 0.346677,-1.18924 c 0.204508,-0.58562 0.04923,-1.2369 -0.397598,-1.66713 -0.223437,-0.2151 -0.499202,-0.35533 -0.791374,-0.41342 z m -0.622841,5.84365 a 4.7624999,4.7625004 11.25 0 1 3.297898,4.93959 l -2.627937,-0.52274 a 2.1166639,2.1166665 11.25 0 0 -1.193596,-1.78436 z m -1.038578,-0.20353 -0.522731,2.62793 a 2.1166639,2.1166665 11.25 0 0 -1.784369,1.1936 l -2.632499,-0.52363 a 4.7624999,4.7625004 11.25 0 1 4.939597,-3.29789 z m -5.143029,4.33651 2.62794,0.52273 a 2.1166639,2.1166665 11.25 0 0 1.193591,1.78436 l -0.523635,2.6325 a 4.7624999,4.7625004 11.25 0 1 -3.297892,-4.9396 z m 6.643597,1.32148 2.632494,0.52365 a 4.7624999,4.7625004 11.25 0 1 -4.939592,3.29789 l 0.522727,-2.62794 a 2.1166639,2.1166665 11.25 0 0 1.784371,-1.1936 z"
       id="path2000-0-2-0-0-4-1-0" />
    <path
       inkscape:connector-curvature="0"
       style="display:inline;opacity:1;vector-effect:none;fill:#be264d;fill-opacity:1;stroke:#6b152b;stroke-width:0.26458332;stroke-linecap:round;stroke-linejoin:round;stroke-miterlimit:4;stroke-dasharray:none;stroke-dashoffset:0;stroke-opacity:1"
       d="m 104.06225,276.10982 c -0.27521,-0.11399 -0.58243,-0.15052 -0.88769,-0.0958 -0.61056,0.10948 -1.1015,0.56473 -1.25681,1.16528 l -0.37197,1.18162 c -0.18598,0.69403 -0.81482,1.17658 -1.53333,1.17658 -0.718516,-1e-5 -1.347555,-0.48262 -1.53352,-1.17664 l -0.372434,-1.18179 c -0.155311,-0.60054 -0.645954,-1.05534 -1.256492,-1.16483 -0.610543,-0.10952 -1.228994,0.14666 -1.583309,0.65582 -0.354305,0.50914 -0.379655,1.17767 -0.06482,1.71213 l 0.572763,1.0992 c 0.359272,0.62224 0.255927,1.40782 -0.252144,1.91589 -0.508065,0.50807 -1.29462,0.61179 -1.91687,0.25254 l -1.098568,-0.5725 c -0.534479,-0.3148 -1.203046,-0.28937 -1.712186,0.0649 -0.50915,0.35431 -0.765258,0.97261 -0.655768,1.58316 0.109494,0.61054 0.564259,1.10128 1.164808,1.25659 l 1.18211,0.37217 c 0.694041,0.18597 1.176595,0.8148 1.176582,1.53333 5e-6,0.71851 -0.482623,1.34755 -1.176644,1.53351 l -1.181787,0.37245 c -0.600534,0.15531 -1.055336,0.64596 -1.164825,1.25651 -0.109483,0.61053 0.146691,1.22898 0.655836,1.5833 0.509165,0.35429 1.177663,0.37968 1.712138,0.0648 l 1.098997,-0.57229 c 0.622253,-0.35927 1.407832,-0.25592 1.915896,0.25215 0.508072,0.50806 0.611521,1.29393 0.25226,1.9162 l -0.572019,1.09875 c -0.314802,0.53449 -0.289599,1.20352 0.06472,1.71266 0.354312,0.50915 0.972616,0.76522 1.583143,0.65577 0.610559,-0.1095 1.101493,-0.56474 1.256786,-1.16529 l 0.37198,-1.18162 c 0.185953,-0.69403 0.815008,-1.17707 1.533527,-1.17705 0.71851,0 1.34756,0.48262 1.53352,1.17663 l 0.37244,1.18178 c 0.15532,0.60054 0.64575,1.05582 1.25628,1.16534 0.61053,0.10952 1.22899,-0.14668 1.58331,-0.65582 0.35427,-0.50917 0.37987,-1.17815 0.065,-1.71261 l -0.57296,-1.09873 c -0.35926,-0.62225 -0.25572,-1.4083 0.25235,-1.91637 0.50807,-0.50807 1.29443,-0.61132 1.91668,-0.25206 l 1.09876,0.57203 c 0.53447,0.31479 1.20304,0.28936 1.71218,-0.0649 0.50915,-0.35432 0.76522,-0.97262 0.65577,-1.58314 -0.10949,-0.61058 -0.56426,-1.10131 -1.1648,-1.2566 l -1.18213,-0.37217 c -0.69404,-0.18597 -1.17659,-0.81481 -1.17656,-1.53334 -2e-5,-0.71851 0.48261,-1.34754 1.17663,-1.53351 l 1.18159,-0.37195 c 0.60052,-0.15531 1.05553,-0.64644 1.16503,-1.25698 0.10951,-0.61055 -0.14669,-1.22898 -0.65583,-1.5833 -0.50918,-0.35428 -1.17767,-0.37967 -1.71214,-0.0648 l -1.09871,0.57297 c -0.62225,0.35927 -1.40831,0.25573 -1.91637,-0.25235 -0.50809,-0.50805 -0.61153,-1.29393 -0.25226,-1.91619 l 0.57202,-1.09876 c 0.3148,-0.53447 0.28956,-1.20352 -0.0647,-1.71267 -0.17717,-0.25454 -0.42029,-0.44588 -0.69551,-0.55986 z m -1.75091,5.60985 a 4.7624999,4.7625004 22.5 0 1 2.27085,5.48807 l -2.47546,-1.02537 a 2.1166639,2.1166665 22.5 0 0 -0.82255,-1.98293 z m -0.97892,-0.40224 -1.02537,2.47547 a 2.1166639,2.1166665 22.5 0 0 -1.982943,0.82255 l -2.479763,-1.02715 a 4.7624999,4.7625004 22.5 0 1 5.488066,-2.27086 z m -5.890219,3.24983 2.475465,1.02538 a 2.1166639,2.1166665 22.5 0 0 0.822543,1.98295 l -1.027153,2.47974 a 4.7624999,4.7625004 22.5 0 1 -2.270852,-5.48808 z m 6.258129,2.59221 2.47976,1.02715 a 4.7624999,4.7625004 22.5 0 1 -5.488067,2.27085 l 1.025372,-2.47545 a 2.1166639,2.1166665 22.5 0 0 1.982935,-0.82255 z"
       id="path2000-0-2-0-0-4-3" />
    <path
       inkscape:connector-curvature="0"
       style="display:inline;opacity:1;vector-effect:none;fill:#be264d;fill-opacity:1;stroke:#6b152b;stroke-width:0.26458332;stroke-linecap:round;stroke-linejoin:round;stroke-miterlimit:4;stroke-dasharray:none;stroke-dashoffset:0;stroke-opacity:1"
       d="m 128.11699,277.08777 c -0.24767,-0.16548 -0.54189,-0.26126 -0.85194,-0.26714 -0.62018,-0.0117 -1.1905,0.33899 -1.45999,0.8977 l -0.59534,1.08635 c -0.3178,0.64442 -1.02869,0.99504 -1.73341,0.85484 -0.70471,-0.14016 -1.2275,-0.73625 -1.27449,-1.45321 l -0.13474,-1.23173 c -0.0352,-0.61929 -0.42765,-1.16108 -1.00508,-1.38759 -0.57746,-0.22653 -1.23401,-0.0959 -1.68084,0.33433 -0.44681,0.43027 -0.60213,1.08097 -0.39758,1.6666 l 0.34731,1.18982 c 0.23096,0.68039 -0.0237,1.4307 -0.62108,1.82988 -0.59741,0.3992 -1.3891,0.34749 -1.9293,-0.12628 l -0.96577,-0.77582 c -0.46279,-0.41302 -1.12347,-0.5185 -1.69195,-0.27038 -0.5685,0.24818 -0.94027,0.80466 -0.95203,1.42481 -0.0117,0.62018 0.33856,1.19021 0.89728,1.4597 l 1.08679,0.59562 c 0.64443,0.3178 0.99503,1.0287 0.85483,1.73342 -0.14015,0.70471 -0.73624,1.2275 -1.45319,1.27449 l -1.23175,0.13474 c -0.6193,0.0352 -1.16108,0.42765 -1.38759,1.0051 -0.22653,0.57743 -0.0959,1.23398 0.33434,1.68083 0.43026,0.4468 1.08096,0.60212 1.6666,0.39758 l 1.18951,-0.34688 c 0.6804,-0.23099 1.43073,0.0237 1.8299,0.62108 0.3992,0.5974 0.34734,1.38835 -0.12641,1.92858 l -0.77539,0.96605 c -0.41303,0.46281 -0.5188,1.12391 -0.27067,1.69238 0.24817,0.56849 0.80465,0.94025 1.4248,0.952 0.62019,0.0117 1.19048,-0.33897 1.45996,-0.89769 l 0.59536,-1.08635 c 0.3178,-0.64442 1.02898,-0.99546 1.73368,-0.85526 0.70472,0.14018 1.22752,0.73625 1.27451,1.4532 l 0.13473,1.23173 c 0.0352,0.61932 0.42736,1.16153 1.00479,1.38805 0.57743,0.22651 1.234,0.0959 1.68083,-0.33434 0.4468,-0.43026 0.60242,-1.0814 0.39787,-1.66703 l -0.34761,-1.18939 c -0.23095,-0.68039 0.0239,-1.43115 0.62138,-1.83032 0.59741,-0.39919 1.38881,-0.34705 1.92901,0.12671 l 0.96605,0.7754 c 0.46279,0.41302 1.12348,0.5185 1.69194,0.27037 0.56849,-0.24817 0.94028,-0.80465 0.95204,-1.42479 0.0117,-0.6202 -0.33858,-1.19021 -0.89728,-1.45969 l -1.08679,-0.59566 c -0.64442,-0.31779 -0.99503,-1.02868 -0.85482,-1.73338 0.14015,-0.70472 0.73623,-1.2275 1.45318,-1.27452 l 1.23145,-0.13428 c 0.6193,-0.0352 1.16136,-0.42808 1.38789,-1.00553 0.22653,-0.57746 0.0959,-1.23398 -0.33436,-1.68083 -0.43026,-0.44681 -1.08097,-0.60213 -1.6666,-0.39757 l -1.18938,0.34762 c -0.68039,0.23097 -1.43114,-0.024 -1.83032,-0.62137 -0.39919,-0.59743 -0.34734,-1.38838 0.12642,-1.92857 l 0.77538,-0.96606 c 0.41303,-0.4628 0.5188,-1.12392 0.27067,-1.69238 -0.12412,-0.28424 -0.32521,-0.51932 -0.57293,-0.6848 z m -2.81169,5.16046 a 4.7624999,4.7625004 33.75 0 1 1.15656,5.82564 l -2.22786,-1.48861 a 2.1166639,2.1166665 33.75 0 0 -0.41989,-2.10531 z m -0.88163,-0.58548 -1.48862,2.22786 a 2.1166639,2.1166665 33.75 0 0 -2.10532,0.41989 l -2.23172,-1.4912 a 4.7624999,4.7625004 33.75 0 1 5.82565,-1.15654 z m -6.41105,2.03826 2.22784,1.4886 a 2.1166639,2.1166665 33.75 0 0 0.41991,2.10531 l -1.4912,2.23173 a 4.7624999,4.7625004 33.75 0 1 -1.15655,-5.82565 z m 5.63216,3.76329 2.23172,1.49119 a 4.7624999,4.7625004 33.75 0 1 -5.82563,1.15656 l 1.48861,-2.22787 a 2.1166639,2.1166665 33.75 0 0 2.1053,-0.41988 z"
       id="path2000-0-2-0-0-4-1-2" />
    <path
       inkscape:connector-curvature="0"
       style="display:inline;opacity:1;vector-effect:none;fill:#be264d;fill-opacity:1;stroke:#6b152b;stroke-width:0.26458332;stroke-linecap:round;stroke-linejoin:round;stroke-miterlimit:4;stroke-dasharray:none;stroke-dashoffset:0;stroke-opacity:1"
       d="m 151.94579,278.40388 c -0.21063,-0.21062 -0.48051,-0.36196 -0.78345,-0.42821 -0.60598,-0.13247 -1.23376,0.10022 -1.60707,0.59562 l -0.79585,0.94933 c -0.43741,0.57002 -1.20303,0.77522 -1.86686,0.50023 -0.66383,-0.27494 -1.06028,-0.96157 -0.9665,-1.67392 l 0.10815,-1.23435 c 0.0863,-0.61425 -0.19292,-1.2222 -0.71506,-1.55701 -0.52217,-0.33483 -1.19159,-0.3348 -1.71377,-10e-6 -0.52217,0.33484 -0.80145,0.94273 -0.71508,1.55702 l 0.10852,1.23471 c 0.0938,0.71236 -0.30236,1.39859 -0.96614,1.67355 -0.66381,0.27499 -1.4302,0.0698 -1.8676,-0.50024 l -0.79585,-0.94932 c -0.37332,-0.49537 -1.00073,-0.72772 -1.60669,-0.59527 -0.606,0.1325 -1.07919,0.60576 -1.21171,1.2117 -0.13246,0.60598 0.0999,1.23339 0.59527,1.60669 l 0.94971,0.79621 c 0.57004,0.43742 0.77522,1.20306 0.50023,1.86688 -0.27494,0.66383 -0.96157,1.06028 -1.67392,0.96649 l -1.23436,-0.10814 c -0.61428,-0.0863 -1.2222,0.19292 -1.55701,0.71508 -0.33483,0.52214 -0.3348,1.19156 0,1.71376 0.33483,0.52216 0.94272,0.80144 1.55701,0.71508 l 1.23433,-0.10815 c 0.71239,-0.0938 1.39862,0.30226 1.67357,0.96613 0.27498,0.66381 0.0698,1.42944 -0.50024,1.86686 l -0.94895,0.79623 c -0.49538,0.37334 -0.72809,1.0011 -0.59563,1.60705 0.13249,0.60598 0.60575,1.07917 1.21169,1.21168 0.606,0.13246 1.23374,-0.10021 1.60704,-0.59562 l 0.79586,-0.94933 c 0.43741,-0.57004 1.20341,-0.77559 1.86722,-0.50061 0.66382,0.27497 1.0603,0.96159 0.96652,1.67393 l -0.10816,1.23435 c -0.0863,0.61427 0.19255,1.22257 0.71469,1.5574 0.52214,0.33481 1.19158,0.3348 1.71376,0 0.52215,-0.33483 0.80181,-0.9431 0.71544,-1.55738 l -0.10889,-1.23435 c -0.0938,-0.71237 0.30274,-1.39897 0.96652,-1.67393 0.66382,-0.27496 1.42984,-0.0694 1.86723,0.50061 l 0.79622,0.94897 c 0.37332,0.49537 1.00074,0.72772 1.60668,0.59526 0.60598,-0.1325 1.07919,-0.60575 1.21171,-1.21168 0.13247,-0.606 -0.0999,-1.2334 -0.59528,-1.6067 l -0.94969,-0.79623 c -0.57005,-0.43741 -0.77522,-1.20304 -0.50023,-1.86685 0.27494,-0.66383 0.96155,-1.0603 1.67391,-0.96652 l 1.23398,0.10854 c 0.61427,0.0863 1.22256,-0.19328 1.55739,-0.71544 0.33482,-0.52216 0.3348,-1.19156 -2e-5,-1.71377 -0.33482,-0.52216 -0.94273,-0.80144 -1.55701,-0.71506 l -1.23435,0.1089 c -0.71237,0.0938 -1.39896,-0.30274 -1.67392,-0.9665 -0.27497,-0.66383 -0.0698,-1.42947 0.50023,-1.86686 l 0.94895,-0.79622 c 0.49538,-0.37334 0.7281,-1.00112 0.59564,-1.60706 -0.0663,-0.30299 -0.21765,-0.57279 -0.42833,-0.78342 z m -3.76442,4.51277 a 4.7624999,4.7625004 45 0 1 -0.002,5.93933 l -1.89464,-1.89464 a 2.1166639,2.1166665 45 0 0 -0.001,-2.14677 z m -0.75047,-0.74623 -1.89465,1.89464 a 2.1166639,2.1166665 45 0 0 -2.14678,10e-4 l -1.89792,-1.89793 a 4.7624999,4.7625004 45 0 1 5.93934,0.002 z m -6.68551,0.74836 1.89462,1.89463 a 2.1166639,2.1166665 45 0 0 0.001,2.14678 l -1.89794,1.89793 a 4.7624999,4.7625004 45 0 1 0.002,-5.93935 z m 4.78976,4.78976 1.89792,1.89792 a 4.7624999,4.7625004 45 0 1 -5.93932,-0.002 l 1.89464,-1.89465 a 2.1166639,2.1166665 45 0 0 2.14676,-10e-4 z"
       id="path2000-0-2-0-0-4-13-1" />
    <path
       inkscape:connector-curvature="0"
       style="display:inline;opacity:1;vector-effect:none;fill:#be264d;fill-opacity:1;stroke:#6b152b;stroke-width:0.26458332;stroke-linecap:round;stroke-linejoin:round;stroke-miterlimit:4;stroke-dasharray:none;stroke-dashoffset:0;stroke-opacity:1"
       d="m 175.48701,280.00756 c -0.16549,-0.24767 -0.40066,-0.44875 -0.68486,-0.57283 -0.56849,-0.24814 -1.22961,-0.14241 -1.69239,0.27065 l -0.96575,0.77583 c -0.54021,0.47374 -1.33116,0.52562 -1.92859,0.12642 -0.59744,-0.39917 -0.85231,-1.14995 -0.62138,-1.83031 l 0.3469,-1.18954 c 0.20448,-0.58562 0.0492,-1.23636 -0.39756,-1.6666 -0.44682,-0.43026 -1.10338,-0.56083 -1.68084,-0.33435 -0.57746,0.22654 -0.96997,0.76826 -1.0051,1.3876 l -0.13445,1.23216 c -0.047,0.71697 -0.56941,1.31273 -1.27407,1.45291 -0.7047,0.1402 -1.41633,-0.21056 -1.73412,-0.85498 l -0.59535,-1.08635 c -0.26951,-0.55868 -0.83953,-0.90896 -1.45969,-0.89728 -0.62021,0.0117 -1.17663,0.38356 -1.42482,0.95203 -0.24814,0.56849 -0.14264,1.22918 0.27038,1.69196 l 0.77613,0.96618 c 0.47375,0.54022 0.52562,1.33118 0.12641,1.9286 -0.39917,0.59742 -1.14994,0.85231 -1.83031,0.62137 l -1.18954,-0.34689 c -0.58564,-0.20448 -1.23636,-0.0492 -1.6666,0.39758 -0.43026,0.44678 -0.56083,1.10335 -0.33434,1.68083 0.22653,0.57745 0.76825,0.96995 1.38759,1.0051 l 1.23171,0.13473 c 0.717,0.047 1.31278,0.56931 1.45293,1.27406 0.14019,0.70471 -0.21041,1.4156 -0.85483,1.73341 l -1.08605,0.59579 c -0.55871,0.26953 -0.90941,0.83983 -0.89771,1.45998 0.0117,0.62019 0.38357,1.1766 0.95203,1.42479 0.56849,0.24813 1.22958,0.14239 1.69236,-0.27067 l 0.96577,-0.77581 c 0.54024,-0.47376 1.3316,-0.52593 1.92901,-0.12672 0.59743,0.3992 0.85233,1.14996 0.62138,1.83032 l -0.3469,1.18954 c -0.20448,0.58564 -0.0497,1.23665 0.39713,1.66689 0.44679,0.43025 1.10336,0.56083 1.68083,0.33434 0.57744,-0.22652 0.97039,-0.76854 1.00552,-1.38788 l 0.13402,-1.23188 c 0.047,-0.71698 0.56975,-1.31306 1.27451,-1.45319 0.7047,-0.14018 1.4159,0.21088 1.73368,0.85525 l 0.59579,1.08608 c 0.2695,0.55867 0.83954,0.90897 1.45967,0.89728 0.6202,-0.0117 1.17662,-0.38358 1.42481,-0.952 0.24815,-0.56852 0.14264,-1.2292 -0.27037,-1.69197 l -0.77613,-0.9662 c -0.47374,-0.54022 -0.52562,-1.33117 -0.12642,-1.92858 0.39918,-0.59743 1.14995,-0.85232 1.83031,-0.62137 l 1.1891,0.34718 c 0.58564,0.20448 1.23678,0.0489 1.66705,-0.39786 0.43025,-0.44682 0.56083,-1.10335 0.33433,-1.68083 -0.22653,-0.57746 -0.76827,-0.96997 -1.3876,-1.0051 l -1.23188,-0.13399 c -0.71698,-0.047 -1.31302,-0.56985 -1.45321,-1.27451 -0.14018,-0.7047 0.21041,-1.41561 0.85483,-1.73339 l 1.08605,-0.59579 c 0.5587,-0.26952 0.90942,-0.83984 0.89772,-1.45998 -0.006,-0.3101 -0.10172,-0.60424 -0.26726,-0.85192 z m -4.5725,3.69167 a 4.7624999,4.7625004 56.25 0 1 -1.16067,5.82481 l -1.4886,-2.22785 a 2.1166639,2.1166665 56.25 0 0 0.41784,-2.10572 z m -0.59047,-0.8783 -2.22786,1.48861 a 2.1166639,2.1166665 56.25 0 0 -2.10573,-0.41784 l -1.49119,-2.23173 a 4.7624999,4.7625004 56.25 0 1 5.82483,1.16067 z m -6.70305,-0.57031 1.48861,2.22786 a 2.1166639,2.1166665 56.25 0 0 -0.41784,2.10572 l -2.23173,1.49118 a 4.7624999,4.7625004 56.25 0 1 1.16067,-5.82482 z m 3.7633,5.63219 1.49119,2.2317 a 4.7624999,4.7625004 56.25 0 1 -5.82483,-1.16067 l 2.22789,-1.48861 a 2.1166639,2.1166665 56.25 0 0 2.1057,0.41783 z"
       id="path2000-0-2-0-0-4-1-0-7" />
    <path
       inkscape:connector-curvature="0"
       style="display:inline;opacity:1;vector-effect:none;fill:#be264d;fill-opacity:1;stroke:#6b152b;stroke-width:0.26458332;stroke-linecap:round;stroke-linejoin:round;stroke-miterlimit:4;stroke-dasharray:none;stroke-dashoffset:0;stroke-opacity:1"
       d="m 198.69008,281.83722 c -0.11401,-0.2752 -0.30543,-0.5183 -0.55996,-0.69544 -0.50916,-0.35428 -1.17819,-0.37954 -1.71267,-0.0647 l -1.09856,0.57252 c -0.62225,0.35923 -1.40812,0.25582 -1.91619,-0.25227 -0.50809,-0.50805 -0.61159,-1.29412 -0.25234,-1.91636 l 0.57229,-1.09899 c 0.3148,-0.53449 0.28945,-1.203 -0.0648,-1.71215 -0.35427,-0.50915 -0.97276,-0.76531 -1.58331,-0.65584 -0.61055,0.10952 -1.10121,0.56426 -1.2565,1.16485 l -0.37224,1.18226 c -0.18598,0.69403 -0.81447,1.17646 -1.53304,1.17642 -0.71851,4e-5 -1.34804,-0.48282 -1.53399,-1.17685 l -0.37198,-1.18161 c -0.15535,-0.60054 -0.64607,-1.0553 -1.2566,-1.16483 -0.61057,-0.10952 -1.22884,0.14666 -1.58317,0.65577 -0.35427,0.50916 -0.3797,1.17774 -0.0649,1.71219 l 0.57272,1.09905 c 0.35925,0.62226 0.25582,1.40813 -0.25227,1.91619 -0.50804,0.50808 -1.29412,0.6116 -1.91635,0.25235 l -1.09901,-0.57229 c -0.53448,-0.3148 -1.20302,-0.28946 -1.71215,0.0648 -0.50916,0.35426 -0.76531,0.97274 -0.65582,1.58331 0.10952,0.61055 0.56426,1.1012 1.16484,1.25649 l 1.18175,0.37245 c 0.69406,0.18597 1.17644,0.81456 1.17645,1.53302 2e-5,0.71854 -0.48253,1.34735 -1.17657,1.53334 l -1.18143,0.37246 c -0.60053,0.15535 -1.05576,0.64627 -1.16528,1.2568 -0.10952,0.61055 0.14666,1.22883 0.65578,1.58313 0.50916,0.35427 1.17818,0.37956 1.71265,0.0647 l 1.09856,-0.57249 c 0.62227,-0.35926 1.40862,-0.25604 1.91666,0.25205 0.50808,0.50806 0.6116,1.29415 0.25237,1.91638 l -0.57229,1.099 c -0.31482,0.5345 -0.29001,1.2032 0.0643,1.71234 0.35427,0.50914 0.97276,0.76531 1.58331,0.65582 0.61054,-0.1095 1.10168,-0.56445 1.25696,-1.16503 l 0.37176,-1.18207 c 0.18598,-0.69403 0.81506,-1.17662 1.53354,-1.17662 0.71851,-2e-5 1.34754,0.48305 1.53351,1.17704 l 0.37246,1.18145 c 0.15533,0.60051 0.64607,1.05528 1.25658,1.1648 0.61058,0.10942 1.22885,-0.14667 1.58316,-0.65575 0.3543,-0.50917 0.37971,-1.17775 0.0649,-1.71221 l -0.57272,-1.09906 c -0.35925,-0.62225 -0.25582,-1.40812 0.25226,-1.91616 0.50806,-0.50809 1.29413,-0.61161 1.91637,-0.25237 l 1.09853,0.57249 c 0.53447,0.3148 1.20346,0.28924 1.71261,-0.065 0.50917,-0.35429 0.76531,-0.97273 0.65582,-1.5833 -0.10951,-0.61056 -0.56425,-1.10121 -1.16484,-1.25649 l -1.18206,-0.37177 c -0.69403,-0.18597 -1.1766,-0.81505 -1.17664,-1.53353 0,-0.71851 0.48255,-1.34735 1.17658,-1.53332 l 1.18142,-0.37245 c 0.60053,-0.15535 1.05577,-0.64629 1.16528,-1.25679 0.0546,-0.30532 0.0181,-0.61248 -0.0959,-0.8877 z m -5.20485,2.72868 a 4.7624999,4.7625004 67.5 0 1 -2.27474,5.48646 l -1.02535,-2.47546 a 2.1166639,2.1166665 67.5 0 0 0.82061,-1.98373 z m -0.40779,-0.97663 -2.47547,1.02539 a 2.1166639,2.1166665 67.5 0 0 -1.98374,-0.82062 l -1.02715,-2.47976 a 4.7624999,4.7625004 67.5 0 1 5.48647,2.27474 z m -6.46299,-1.86703 1.02537,2.47546 a 2.1166639,2.1166665 67.5 0 0 -0.82061,1.98373 l -2.47977,1.02716 a 4.7624999,4.7625004 67.5 0 1 2.27474,-5.48648 z m 2.5922,6.25814 1.02716,2.47976 a 4.7624999,4.7625004 67.5 0 1 -5.48647,-2.27473 l 2.47547,-1.02537 a 2.1166639,2.1166665 67.5 0 0 1.98374,0.82061 z"
       id="path2000-0-2-0-0-4-5" />
    <path
       inkscape:connector-curvature="0"
       style="display:inline;opacity:1;vector-effect:none;fill:#be264d;fill-opacity:1;stroke:#6b152b;stroke-width:0.26458332;stroke-linecap:round;stroke-linejoin:round;stroke-miterlimit:4;stroke-dasharray:none;stroke-dashoffset:0;stroke-opacity:1"
       d="m 221.51739,283.82255 c -0.0581,-0.29216 -0.19845,-0.56793 -0.41353,-0.79133 -0.43026,-0.44681 -1.0815,-0.60211 -1.66714,-0.39758 l -1.18913,0.34721 c -0.68038,0.23093 -1.43098,-0.0238 -1.83017,-0.62126 -0.3992,-0.59742 -0.34737,-1.38858 0.12637,-1.92875 l 0.7757,-0.96625 c 0.41302,-0.46279 0.51858,-1.12342 0.27047,-1.69188 -0.24814,-0.56848 -0.80477,-0.94038 -1.42494,-0.95213 -0.62019,-0.0117 -1.19013,0.33858 -1.45961,0.89734 l -0.59572,1.08692 c -0.31781,0.64442 -1.02834,0.99496 -1.73311,0.85475 -0.7047,-0.14015 -1.22793,-0.73653 -1.27491,-1.45352 l -0.13431,-1.23147 c -0.0352,-0.61931 -0.42778,-1.16107 -1.00521,-1.3876 -0.57747,-0.22653 -1.23384,-0.0959 -1.68068,0.33431 -0.4468,0.43026 -0.60217,1.08103 -0.39769,1.66663 l 0.3473,1.18966 c 0.23095,0.68039 -0.0238,1.43098 -0.62125,1.83016 -0.5974,0.3992 -1.38857,0.34738 -1.92876,-0.12636 l -0.96624,-0.7757 c -0.4628,-0.41303 -1.12344,-0.5186 -1.6919,-0.27047 -0.56849,0.24812 -0.94037,0.80474 -0.9521,1.42494 -0.0117,0.62019 0.33857,1.19011 0.89733,1.4596 l 1.08638,0.59584 c 0.64443,0.3178 0.99492,1.02842 0.85477,1.73308 -0.14016,0.70471 -0.73612,1.22732 -1.45311,1.27434 l -1.23139,0.13481 c -0.61931,0.0351 -1.16155,0.42789 -1.38808,1.00532 -0.22653,0.57745 -0.0959,1.23383 0.33433,1.68065 0.43026,0.44679 1.08148,0.6021 1.66712,0.39758 l 1.18914,-0.34718 c 0.6804,-0.23095 1.4315,0.0237 1.83066,0.62113 0.39919,0.59742 0.34737,1.3886 -0.12635,1.92879 l -0.7757,0.96624 c -0.41305,0.46281 -0.51917,1.1235 -0.271,1.69198 0.24814,0.56847 0.80477,0.94038 1.42495,0.95211 0.62017,0.0117 1.19063,-0.33868 1.46009,-0.89742 l 0.59523,-1.08683 c 0.3178,-0.64442 1.02894,-0.99501 1.73362,-0.85484 0.70471,0.14016 1.22741,0.73666 1.27441,1.4536 l 0.13481,1.23139 c 0.0352,0.6193 0.42779,1.16107 1.0052,1.38759 0.5775,0.22643 1.23385,0.0959 1.68067,-0.33429 0.44683,-0.43027 0.60218,-1.08105 0.39769,-1.66665 l -0.3473,-1.18968 c -0.23095,-0.68038 0.0238,-1.43097 0.62124,-1.83013 0.59742,-0.39921 1.38858,-0.34738 1.92878,0.12635 l 0.96574,0.7758 c 0.46278,0.41302 1.1239,0.51847 1.69238,0.27036 0.5685,-0.24814 0.94037,-0.80473 0.9521,-1.42493 0.0117,-0.62019 -0.33858,-1.19014 -0.89732,-1.4596 l -1.08682,-0.59523 c -0.64443,-0.3178 -0.99499,-1.02893 -0.85486,-1.73361 0.14018,-0.70471 0.73614,-1.22733 1.45311,-1.27432 l 1.23138,-0.13481 c 0.6193,-0.0352 1.16157,-0.42791 1.38808,-1.00531 0.11311,-0.2888 0.13724,-0.59718 0.0791,-0.88935 z m -5.63718,1.66083 a 4.7624999,4.7625004 78.75 0 1 -3.30139,4.93725 l -0.52272,-2.62792 a 2.1166639,2.1166665 78.75 0 0 1.19186,-1.78553 z m -0.20943,-1.03742 -2.62793,0.52273 a 2.1166639,2.1166665 78.75 0 0 -1.78554,-1.19185 l -0.52361,-2.63252 a 4.7624999,4.7625004 78.75 0 1 4.93726,3.30139 z m -5.97455,-3.09203 0.52272,2.62793 a 2.1166639,2.1166665 78.75 0 0 -1.19185,1.78552 l -2.63249,0.52364 a 4.7624999,4.7625004 78.75 0 1 3.30138,-4.93726 z m 1.32148,6.6436 0.52364,2.6325 a 4.7624999,4.7625004 78.75 0 1 -4.93726,-3.30138 l 2.62794,-0.52271 a 2.1166639,2.1166665 78.75 0 0 1.78553,1.19185 z"
       id="path2000-0-2-0-0-4-1-6" />
    <path
       inkscape:connector-curvature="0"
       style="display:inline;opacity:1;vector-effect:none;fill:#be264d;fill-opacity:1;stroke:#6b152b;stroke-width:0.26458332;stroke-linecap:round;stroke-linejoin:round;stroke-miterlimit:4;stroke-dasharray:none;stroke-dashoffset:0;stroke-opacity:1"
       d="m 243.94578,285.88725 c 10e-6,-0.29788 -0.0838,-0.59572 -0.2512,-0.85679 -0.33482,-0.52215 -0.94326,-0.80152 -1.55754,-0.71518 l -1.23403,0.10854 c -0.71236,0.0938 -1.39884,-0.30251 -1.67379,-0.96636 -0.27499,-0.66381 -0.0698,-1.42966 0.50022,-1.86705 l 0.94929,-0.79635 c 0.49538,-0.37333 0.72779,-1.00067 0.59533,-1.60659 -0.13245,-0.60599 -0.60582,-1.07932 -1.21178,-1.21183 -0.606,-0.13247 -1.23334,0.0999 -1.60663,0.59533 l -0.79633,0.94982 c -0.43742,0.57003 -1.20276,0.77514 -1.86657,0.50021 -0.66381,-0.27494 -1.06065,-0.96194 -0.96684,-1.67431 l 0.10851,-1.23403 c 0.0863,-0.61426 -0.19305,-1.22219 -0.71518,-1.55702 -0.52218,-0.33484 -1.19144,-0.33477 -1.7136,-10e-6 -0.52216,0.33483 -0.8015,0.94278 -0.7152,1.55703 l 0.10855,1.23456 c 0.0938,0.71236 -0.30251,1.39884 -0.96636,1.6738 -0.6638,0.27497 -1.42967,0.0698 -1.86707,-0.50022 l -0.79633,-0.94931 c -0.37334,-0.49537 -1.00067,-0.7278 -1.60662,-0.59533 -0.60597,0.13244 -1.07929,0.60582 -1.2118,1.21181 -0.13247,0.60598 0.0999,1.2333 0.59532,1.6066 l 0.94929,0.79634 c 0.57005,0.43743 0.77525,1.2027 0.50022,1.86654 -0.27494,0.66384 -0.96143,1.06015 -1.67379,0.96636 l -1.23403,-0.108 c -0.61426,-0.0863 -1.2227,0.19305 -1.55752,0.71518 -0.33483,0.52217 -0.33477,1.19142 2e-5,1.71359 0.33482,0.52215 0.94323,0.80154 1.55751,0.71517 l 1.23402,-0.10852 c 0.7124,-0.0938 1.39937,0.30252 1.67432,0.96634 0.27497,0.66383 0.0698,1.42969 -0.50022,1.86708 l -0.9493,0.79634 c -0.49538,0.37334 -0.72836,1.00062 -0.59587,1.6066 0.13246,0.60596 0.60583,1.07931 1.21181,1.21182 0.60597,0.13247 1.23383,-0.0999 1.60712,-0.59535 l 0.79583,-0.94982 c 0.43742,-0.57002 1.20324,-0.77521 1.86707,-0.50019 0.66382,0.27494 1.06012,0.96197 0.96636,1.6743 l -0.10802,1.23403 c -0.0863,0.61425 0.19304,1.22219 0.71518,1.55701 0.52217,0.33483 1.19143,0.33477 1.71359,2e-5 0.52217,-0.33483 0.8015,-0.94279 0.71518,-1.55703 l -0.10853,-1.23457 c -0.0938,-0.71236 0.30251,-1.39883 0.96635,-1.67378 0.66382,-0.27497 1.42966,-0.0698 1.86706,0.50023 l 0.79582,0.94929 c 0.37332,0.49538 1.00116,0.72777 1.60713,0.59534 0.606,-0.13247 1.07931,-0.60581 1.21182,-1.21181 0.13247,-0.60598 -0.0999,-1.23332 -0.59535,-1.60661 l -0.94981,-0.79582 c -0.57005,-0.43742 -0.77513,-1.20329 -0.50022,-1.86707 0.27495,-0.66383 0.96143,-1.06015 1.67378,-0.96635 l 1.23402,0.108 c 0.61428,0.0863 1.22274,-0.19307 1.55754,-0.71519 0.16728,-0.26118 0.2511,-0.55893 0.25108,-0.85683 z m -5.85289,0.52917 a 4.7624999,4.7625004 90 0 1 -4.20115,4.19831 l 1e-5,-2.6794 a 2.1166665,2.1166639 0 0 0 1.51729,-1.5187 z m -0.003,-1.05834 -2.67942,1e-5 a 2.1166665,2.1166639 0 0 0 -1.5187,-1.5173 l -1e-5,-2.68407 a 4.7624999,4.7625004 90 0 1 4.19834,4.20117 z m -5.25653,-4.1982 v 2.67942 a 2.1166665,2.1166639 0 0 0 -1.5173,1.5187 l -2.68406,10e-6 a 4.7624999,4.7625004 90 0 1 4.20115,-4.19833 z m -1e-5,6.77376 1e-5,2.68408 a 4.7624999,4.7625004 90 0 1 -4.19835,-4.20117 l 2.67946,1e-5 a 2.1166665,2.1166639 0 0 0 1.51869,1.51728 z"
       id="path2000-0-2-0-0-4-13-5" />
    <path
       inkscape:connector-curvature="0"
       style="display:inline;opacity:1;vector-effect:none;fill:#be264d;fill-opacity:1;stroke:#6b152b;stroke-width:0.26458332;stroke-linecap:round;stroke-linejoin:round;stroke-miterlimit:4;stroke-dasharray:none;stroke-dashoffset:0;stroke-opacity:1"
       d="m 265.96749,287.95193 c 0.0581,-0.29212 0.034,-0.6006 -0.0792,-0.88933 -0.22642,-0.57747 -0.76876,-0.97014 -1.38809,-1.0053 l -1.23147,-0.13429 c -0.71698,-0.047 -1.31296,-0.5696 -1.45312,-1.27433 -0.1402,-0.70471 0.21045,-1.41581 0.85485,-1.73359 l 1.08642,-0.59583 c 0.55868,-0.26952 0.90904,-0.83946 0.89734,-1.4596 -0.0117,-0.62017 -0.38363,-1.17678 -0.95211,-1.42495 -0.5685,-0.24814 -1.22911,-0.14262 -1.6919,0.27047 l -0.96632,0.77619 c -0.54023,0.47376 -1.33082,0.52571 -1.92828,0.12646 -0.59741,-0.39916 -0.85261,-1.15038 -0.62164,-1.83075 l 0.34718,-1.18914 c 0.20449,-0.58564 0.0491,-1.23639 -0.39768,-1.66664 -0.44682,-0.43028 -1.10321,-0.56077 -1.68067,-0.33431 -0.57745,0.22652 -0.97003,0.7683 -1.00522,1.38758 l -0.13441,1.23199 c -0.047,0.717 -0.5696,1.31296 -1.27433,1.45311 -0.70469,0.1402 -1.4158,-0.21046 -1.73357,-0.85485 l -0.59586,-1.08641 c -0.26952,-0.5587 -0.83945,-0.90903 -1.4596,-0.89734 -0.62016,0.0117 -1.17675,0.38362 -1.42493,0.95211 -0.24815,0.56851 -0.14262,1.22911 0.27046,1.6919 l 0.77567,0.9662 c 0.47377,0.54024 0.52563,1.33089 0.12648,1.92829 -0.39918,0.59743 -1.14976,0.85218 -1.83016,0.62124 l -1.18926,-0.34667 c -0.58562,-0.20448 -1.23687,-0.0492 -1.66712,0.39758 -0.43026,0.44684 -0.56076,1.10322 -0.33428,1.68067 0.22653,0.57744 0.76873,0.97014 1.38807,1.00529 l 1.23148,0.13432 c 0.717,0.047 1.31347,0.56971 1.45361,1.27442 0.14018,0.7047 -0.21046,1.41582 -0.85485,1.73361 l -1.08644,0.59582 c -0.55869,0.26952 -0.90952,0.83937 -0.89786,1.45948 0.0117,0.62018 0.38364,1.17677 0.9521,1.42496 0.5685,0.24813 1.22964,0.14273 1.69241,-0.27038 l 0.96583,-0.77631 c 0.54021,-0.47374 1.33136,-0.52558 1.92879,-0.12633 0.5974,0.39916 0.85207,1.15031 0.62113,1.83064 l -0.34669,1.18926 c -0.20448,0.58561 -0.0491,1.23638 0.39769,1.66662 0.44681,0.43027 1.10322,0.56077 1.68065,0.33432 0.57746,-0.22651 0.97005,-0.7683 1.00521,-1.38758 l 0.1344,-1.23203 c 0.047,-0.71698 0.5696,-1.31294 1.27432,-1.45309 0.70471,-0.14019 1.4158,0.21045 1.73361,0.85484 l 0.59534,1.08632 c 0.2695,0.55869 0.83994,0.9091 1.46009,0.89744 0.62019,-0.0117 1.17676,-0.38362 1.42493,-0.95213 0.24815,-0.56851 0.14263,-1.22911 -0.27045,-1.69188 l -0.77631,-0.96583 c -0.47374,-0.54021 -0.52549,-1.33139 -0.12636,-1.92878 0.39919,-0.59743 1.14979,-0.8522 1.83016,-0.62125 l 1.18923,0.34668 c 0.58558,0.20457 1.23691,0.0492 1.66714,-0.39759 0.21503,-0.22352 0.35533,-0.4992 0.41342,-0.79138 z m -5.84366,-0.62283 a 4.7625004,4.7624999 11.25 0 1 -4.93948,3.29805 l 0.52274,-2.62794 a 2.1166665,2.1166639 11.25 0 0 1.78442,-1.19351 z m 0.20353,-1.03859 -2.62795,-0.52273 a 2.1166665,2.1166639 11.25 0 0 -1.19353,-1.78444 l 0.52368,-2.63248 a 4.7625004,4.7624999 11.25 0 1 3.29804,4.93948 z m -4.33652,-5.14302 -0.52273,2.62791 a 2.1166665,2.1166639 11.25 0 0 -1.78441,1.19351 l -2.63252,-0.52364 a 4.7625004,4.7624999 11.25 0 1 4.9395,-3.29806 z m -1.3215,6.64359 -0.52363,2.6325 a 4.7625004,4.7624999 11.25 0 1 -3.29805,-4.9395 l 2.62794,0.52275 a 2.1166665,2.1166639 11.25 0 0 1.19351,1.78441 z"
       id="path2000-0-2-0-0-4-1-0-4" />
    <path
       inkscape:connector-curvature="0"
       style="display:inline;opacity:1;vector-effect:none;fill:#be264d;fill-opacity:1;stroke:#6b152b;stroke-width:0.26458332;stroke-linecap:round;stroke-linejoin:round;stroke-miterlimit:4;stroke-dasharray:none;stroke-dashoffset:0;stroke-opacity:1"
       d="m 287.59029,289.93732 c 0.11398,-0.2752 0.15052,-0.58245 0.0958,-0.88768 -0.10951,-0.61056 -0.56473,-1.10149 -1.16529,-1.2568 l -1.18163,-0.37196 c -0.69403,-0.18597 -1.17659,-0.8148 -1.17657,-1.53335 -3e-5,-0.7185 0.48262,-1.34753 1.17664,-1.53348 l 1.18178,-0.37245 c 0.60052,-0.15533 1.05532,-0.64597 1.16485,-1.25649 0.10951,-0.61053 -0.1467,-1.22898 -0.65582,-1.58332 -0.50917,-0.35429 -1.17767,-0.37967 -1.71216,-0.0648 l -1.09919,0.57277 c -0.62227,0.35924 -1.40784,0.25588 -1.9159,-0.25215 -0.50808,-0.50806 -0.61179,-1.29462 -0.25252,-1.91688 l 0.5725,-1.09856 c 0.3148,-0.53448 0.28936,-1.20304 -0.0649,-1.7122 -0.3543,-0.50917 -0.97264,-0.76523 -1.58317,-0.65577 -0.61055,0.10953 -1.10128,0.56431 -1.25661,1.16481 l -0.37218,1.18212 c -0.18597,0.69404 -0.81479,1.1766 -1.53332,1.17658 -0.7185,2e-5 -1.34754,-0.48262 -1.5335,-1.17663 l -0.37246,-1.18179 c -0.15534,-0.60054 -0.64597,-1.05534 -1.25648,-1.16485 -0.61055,-0.10952 -1.22898,0.14668 -1.5833,0.65584 -0.35429,0.50916 -0.37966,1.17764 -0.0648,1.71214 l 0.57226,1.09899 c 0.35927,0.62227 0.25588,1.40786 -0.25213,1.91587 -0.50805,0.50809 -1.29394,0.61153 -1.91619,0.25228 l -1.09878,-0.57203 c -0.53443,-0.31488 -1.2035,-0.28956 -1.71266,0.0647 -0.50916,0.35428 -0.76522,0.9726 -0.65573,1.58315 0.10951,0.61055 0.56469,1.10147 1.16528,1.25677 l 1.1816,0.37199 c 0.69405,0.18598 1.17709,0.81501 1.17705,1.53351 -10e-6,0.71854 -0.48263,1.34757 -1.17662,1.53354 l -1.18179,0.37244 c -0.60056,0.15534 -1.05585,0.64572 -1.16534,1.25627 -0.10951,0.61054 0.14668,1.229 0.65583,1.58331 0.50916,0.35428 1.17815,0.37987 1.71261,0.065 l 1.09874,-0.57295 c 0.62225,-0.35925 1.40831,-0.25568 1.91636,0.25236 0.50807,0.50806 0.61131,1.29443 0.25205,1.91665 l -0.57203,1.09878 c -0.31479,0.53447 -0.28936,1.20306 0.0649,1.71217 0.3543,0.50917 0.97264,0.76524 1.58316,0.65579 0.61056,-0.10953 1.10128,-0.56431 1.2566,-1.16481 l 0.37218,-1.18213 c 0.18598,-0.69405 0.8148,-1.17659 1.53332,-1.17657 0.71851,-1e-5 1.34755,0.48262 1.53352,1.17663 l 0.37195,1.1816 c 0.15534,0.60052 0.64645,1.05549 1.25697,1.16503 0.61055,0.10952 1.22898,-0.14667 1.58332,-0.65585 0.35428,-0.50914 0.37967,-1.17766 0.0648,-1.71212 l -0.57299,-1.09871 c -0.35925,-0.62227 -0.25566,-1.40835 0.25236,-1.91638 0.50807,-0.50808 1.29395,-0.61152 1.91619,-0.25227 l 1.09875,0.57202 c 0.53449,0.3148 1.20355,0.28956 1.71267,-0.0647 0.2545,-0.17729 0.44589,-0.42028 0.55987,-0.69551 z m -5.60983,-1.75093 a 4.7625004,4.7624999 22.5 0 1 -5.48799,2.27106 l 1.02537,-2.47547 a 2.1166665,2.1166639 22.5 0 0 1.98298,-0.82246 z m 0.40222,-0.9789 -2.47546,-1.02538 a 2.1166665,2.1166639 22.5 0 0 -0.82247,-1.98297 l 1.02717,-2.47976 a 4.7625004,4.7624999 22.5 0 1 2.27103,5.48799 z m -3.24982,-5.89019 -1.02537,2.47543 a 2.1166665,2.1166639 22.5 0 0 -1.98299,0.82246 l -2.47975,-1.02716 a 4.7625004,4.7624999 22.5 0 1 5.488,-2.27104 z m -2.59221,6.2581 -1.02713,2.47976 a 4.7625004,4.7624999 22.5 0 1 -2.27103,-5.48799 l 2.47546,1.02536 a 2.1166665,2.1166639 22.5 0 0 0.82247,1.98297 z"
       id="path2000-0-2-0-0-4-3-2" />
    <path
       inkscape:connector-curvature="0"
       style="display:inline;opacity:1;vector-effect:none;fill:#be264d;fill-opacity:1;stroke:#6b152b;stroke-width:0.26458332;stroke-linecap:round;stroke-linejoin:round;stroke-miterlimit:4;stroke-dasharray:none;stroke-dashoffset:0;stroke-opacity:1"
       d="m 308.83735,291.76706 c 0.16548,-0.24767 0.26126,-0.5419 0.26714,-0.85194 0.0117,-0.62018 -0.33899,-1.1905 -0.8977,-1.45999 l -1.08636,-0.59533 c -0.64443,-0.31779 -0.99505,-1.02871 -0.85483,-1.73341 0.14014,-0.70471 0.73624,-1.22751 1.4532,-1.2745 l 1.23173,-0.13474 c 0.61927,-0.0352 1.16107,-0.42768 1.38759,-1.00507 0.22652,-0.57747 0.0959,-1.23401 -0.33434,-1.68085 -0.43027,-0.44681 -1.08097,-0.60213 -1.6666,-0.39757 l -1.18981,0.34733 c -0.6804,0.23094 -1.43071,-0.0237 -1.82988,-0.6211 -0.39921,-0.5974 -0.34749,-1.3891 0.12627,-1.9293 l 0.77582,-0.96576 c 0.41302,-0.4628 0.5185,-1.12348 0.27038,-1.69196 -0.24815,-0.56853 -0.80465,-0.94026 -1.42481,-0.95203 -0.62018,-0.0117 -1.19019,0.33861 -1.45969,0.89728 l -0.59562,1.0868 c -0.31781,0.64444 -1.0287,0.99504 -1.73344,0.85484 -0.70468,-0.14015 -1.22749,-0.73624 -1.27448,-1.4532 l -0.13473,-1.23174 c -0.0352,-0.61933 -0.42768,-1.16109 -1.00512,-1.38759 -0.57742,-0.22652 -1.23398,-0.0959 -1.6808,0.33433 -0.44682,0.43026 -0.60214,1.08096 -0.39758,1.6666 l 0.34687,1.18952 c 0.23097,0.6804 -0.0237,1.43073 -0.62106,1.82988 -0.5974,0.3992 -1.38836,0.34734 -1.92859,-0.1264 l -0.96605,-0.77539 c -0.46281,-0.41303 -1.1239,-0.51879 -1.69236,-0.27067 -0.56853,0.24815 -0.94028,0.80464 -0.95201,1.4248 -0.0117,0.6202 0.33895,1.19047 0.89768,1.45996 l 1.08637,0.59535 c 0.64442,0.31781 0.99545,1.02899 0.85526,1.73369 -0.14018,0.70472 -0.73626,1.22753 -1.45321,1.27452 l -1.23174,0.13473 c -0.61932,0.0352 -1.16153,0.42732 -1.38803,1.00478 -0.22651,0.57744 -0.0959,1.23401 0.33433,1.68084 0.43026,0.4468 1.0814,0.60241 1.66703,0.39787 l 1.1894,-0.3476 c 0.68039,-0.23094 1.43114,0.0239 1.8303,0.6214 0.39921,0.59739 0.34703,1.38881 -0.12669,1.92901 l -0.77541,0.96604 c -0.41301,0.46279 -0.51851,1.12349 -0.27038,1.69194 0.24815,0.56849 0.80465,0.94026 1.4248,0.95203 0.62017,0.0117 1.1902,-0.33861 1.45968,-0.89729 l 0.59565,-1.08679 c 0.31781,-0.64443 1.02869,-0.99502 1.73339,-0.85481 0.70472,0.14014 1.2275,0.73624 1.2745,1.45318 l 0.1343,1.23146 c 0.0352,0.61929 0.4281,1.16132 1.00553,1.38788 0.57746,0.22652 1.23397,0.0959 1.68085,-0.33437 0.44678,-0.43024 0.60211,-1.08096 0.39757,-1.66659 l -0.34761,-1.18937 c -0.23096,-0.68041 0.024,-1.43116 0.62137,-1.83033 0.59742,-0.39919 1.38838,-0.34733 1.92856,0.12642 l 0.96606,0.77538 c 0.4628,0.41302 1.12393,0.51879 1.69238,0.27067 0.2842,-0.12425 0.51931,-0.32523 0.6848,-0.57294 z m -5.16045,-2.81172 a 4.7625004,4.7624999 33.75 0 1 -5.8256,1.15676 l 1.4886,-2.22787 a 2.1166665,2.1166639 33.75 0 0 2.10532,-0.41979 z m 0.58546,-0.88163 -2.22785,-1.48861 a 2.1166665,2.1166639 33.75 0 0 -0.41981,-2.10534 l 1.49121,-2.23171 a 4.7625004,4.7624999 33.75 0 1 1.15674,5.82561 z m -2.03825,-6.41104 -1.48861,2.22784 a 2.1166665,2.1166639 33.75 0 0 -2.10532,0.41979 l -2.23175,-1.4912 a 4.7625004,4.7624999 33.75 0 1 5.82562,-1.15674 z m -3.76329,5.63218 -1.49119,2.23169 a 4.7625004,4.7624999 33.75 0 1 -1.15676,-5.82558 l 2.22788,1.4886 a 2.1166665,2.1166639 33.75 0 0 0.4198,2.10533 z"
       id="path2000-0-2-0-0-4-1-2-2" />
    <path
       inkscape:connector-curvature="0"
       style="display:inline;opacity:1;vector-effect:none;fill:#be264d;fill-opacity:1;stroke:#6b152b;stroke-width:0.26458332;stroke-linecap:round;stroke-linejoin:round;stroke-miterlimit:4;stroke-dasharray:none;stroke-dashoffset:0;stroke-opacity:1"
       d="m 329.74628,293.3707 c 0.21062,-0.21063 0.36196,-0.48052 0.42821,-0.78345 0.13247,-0.60598 -0.10022,-1.23376 -0.59562,-1.60707 l -0.94934,-0.79583 c -0.57005,-0.43741 -0.77524,-1.20307 -0.50024,-1.86687 0.27493,-0.66383 0.96157,-1.06029 1.67392,-0.96651 l 1.23435,0.10815 c 0.61424,0.0863 1.2222,-0.19295 1.55701,-0.71505 0.33483,-0.52219 0.3348,-1.19159 0,-1.71378 -0.33483,-0.52217 -0.94273,-0.80145 -1.55701,-0.71507 l -1.23471,0.10853 c -0.71238,0.0938 -1.3986,-0.30236 -1.67355,-0.96615 -0.27499,-0.66381 -0.0698,-1.43021 0.50023,-1.8676 l 0.94932,-0.79585 c 0.49538,-0.37333 0.72772,-1.00074 0.59527,-1.6067 -0.13246,-0.60602 -0.60575,-1.07917 -1.2117,-1.2117 -0.60598,-0.13247 -1.23338,0.0999 -1.60669,0.59527 l -0.7962,0.94971 c -0.43743,0.57006 -1.20306,0.77523 -1.8669,0.50024 -0.6638,-0.27493 -1.06027,-0.96156 -0.96649,-1.67392 l 0.10816,-1.23435 c 0.0863,-0.6143 -0.19294,-1.22222 -0.7151,-1.55702 -0.52213,-0.33482 -1.19156,-0.33479 -1.71373,0 -0.52217,0.33482 -0.80145,0.94272 -0.71508,1.55701 l 0.10814,1.23434 c 0.0938,0.71238 -0.30236,1.39861 -0.96611,1.67355 -0.66381,0.27499 -1.42945,0.0698 -1.86688,-0.50022 l -0.79621,-0.94896 c -0.37334,-0.49538 -1.0011,-0.72808 -1.60704,-0.59563 -0.60602,0.13247 -1.07919,0.60574 -1.21168,1.2117 -0.13247,0.606 0.10018,1.23372 0.5956,1.60703 l 0.94935,0.79585 c 0.57004,0.43743 0.77558,1.20342 0.5006,1.86723 -0.27497,0.66384 -0.96159,1.06031 -1.67393,0.96653 l -1.23436,-0.10816 c -0.61428,-0.0863 -1.22258,0.1925 -1.55738,0.71468 -0.33481,0.52215 -0.3348,1.19159 -1e-5,1.71377 0.33483,0.52215 0.9431,0.8018 1.55738,0.71544 l 1.23436,-0.10888 c 0.71237,-0.0938 1.39898,0.30265 1.6739,0.96654 0.27499,0.66379 0.0694,1.42982 -0.50059,1.86723 l -0.94897,0.7962 c -0.49536,0.37332 -0.72773,1.00075 -0.59527,1.60668 0.13248,0.60598 0.60575,1.07917 1.21169,1.2117 0.60597,0.13247 1.23339,-0.0999 1.60669,-0.59528 l 0.79622,-0.9497 c 0.43743,-0.57005 1.20305,-0.77521 1.86685,-0.50022 0.66384,0.27493 1.06028,0.96157 0.96651,1.6739 l -0.10852,1.234 c -0.0863,0.61426 0.19331,1.22253 0.71544,1.55738 0.52218,0.33483 1.19155,0.3348 1.71379,-2e-5 0.52213,-0.33482 0.80142,-0.94273 0.71506,-1.55701 l -0.10889,-1.23433 c -0.0938,-0.7124 0.30274,-1.39898 0.96651,-1.67394 0.66382,-0.27497 1.42946,-0.0698 1.86684,0.50024 l 0.79623,0.94895 c 0.37333,0.49537 1.00112,0.72809 1.60705,0.59563 0.30298,-0.0664 0.57278,-0.21767 0.78342,-0.42833 z m -4.51276,-3.76445 a 4.7625004,4.7624999 45 0 1 -5.93933,-0.002 l 1.89463,-1.89465 a 2.1166665,2.1166639 45 0 0 2.14677,-0.001 z m 0.74621,-0.75047 -1.89463,-1.89464 a 2.1166665,2.1166639 45 0 0 -0.001,-2.14679 l 1.89794,-1.8979 a 4.7625004,4.7624999 45 0 1 -0.002,5.93934 z m -0.74835,-6.6855 -1.89464,1.89462 a 2.1166665,2.1166639 45 0 0 -2.14676,10e-4 l -1.89795,-1.89794 a 4.7625004,4.7624999 45 0 1 5.93935,0.002 z m -4.78976,4.78978 -1.89792,1.89789 a 4.7625004,4.7624999 45 0 1 0.002,-5.93931 l 1.89466,1.89463 a 2.1166665,2.1166639 45 0 0 10e-4,2.14678 z"
       id="path2000-0-2-0-0-4-1-2-2-1" />
    <path
       inkscape:connector-curvature="0"
       style="display:inline;opacity:1;vector-effect:none;fill:#be264d;fill-opacity:1;stroke:#6b152b;stroke-width:0.26458332;stroke-linecap:round;stroke-linejoin:round;stroke-miterlimit:4;stroke-dasharray:none;stroke-dashoffset:0;stroke-opacity:1"
       d="m 350.36759,294.68692 c 0.24766,-0.16549 0.44875,-0.40067 0.57282,-0.68486 0.24815,-0.56849 0.1424,-1.2296 -0.27065,-1.69239 l -0.77584,-0.96574 c -0.47376,-0.54022 -0.52563,-1.3312 -0.12642,-1.92859 0.39916,-0.59744 1.14995,-0.85233 1.83032,-0.62138 l 1.18953,0.34689 c 0.5856,0.20447 1.23636,0.0492 1.66659,-0.39756 0.43027,-0.44683 0.56084,-1.10338 0.33434,-1.68085 -0.22652,-0.57746 -0.76826,-0.96997 -1.38759,-1.00509 l -1.23215,-0.13443 c -0.717,-0.047 -1.31274,-0.5694 -1.45291,-1.27408 -0.1402,-0.7047 0.21056,-1.41635 0.85497,-1.73412 l 1.08634,-0.59536 c 0.55869,-0.26951 0.90897,-0.83954 0.89728,-1.4597 -0.0117,-0.62021 -0.38357,-1.17661 -0.95202,-1.4248 -0.5685,-0.24815 -1.22917,-0.14264 -1.69195,0.27038 l -0.96618,0.77613 c -0.54024,0.47377 -1.33119,0.52563 -1.92862,0.12641 -0.59741,-0.39915 -0.85231,-1.14993 -0.62136,-1.83031 l 0.34689,-1.18953 c 0.20449,-0.58566 0.0492,-1.23637 -0.3976,-1.66661 -0.44677,-0.43025 -1.10335,-0.56082 -1.6808,-0.33433 -0.57745,0.22652 -0.96996,0.76825 -1.00509,1.38759 l -0.13475,1.23172 c -0.047,0.71699 -0.56941,1.31274 -1.27404,1.45291 -0.7047,0.1402 -1.4156,-0.21041 -1.73342,-0.85482 l -0.59578,-1.08606 c -0.26952,-0.55869 -0.83982,-0.90939 -1.45996,-0.8977 -0.62022,0.0117 -1.17663,0.38356 -1.42479,0.95203 -0.24815,0.56851 -0.14243,1.22956 0.27064,1.69235 l 0.77585,0.96576 c 0.47375,0.54024 0.5259,1.33161 0.1267,1.92902 -0.39919,0.59744 -1.14997,0.85234 -1.83033,0.62139 l -1.18954,-0.34689 c -0.58564,-0.20449 -1.23664,-0.0497 -1.66688,0.39711 -0.43024,0.4468 -0.56083,1.10338 -0.33435,1.68084 0.22653,0.57744 0.76856,0.97039 1.38788,1.00553 l 1.23189,0.13402 c 0.71698,0.047 1.31305,0.56976 1.45317,1.27453 0.14021,0.70468 -0.21088,1.41588 -0.85525,1.73369 l -1.08607,0.59577 c -0.55867,0.2695 -0.90898,0.83954 -0.89728,1.45967 0.0117,0.62019 0.38358,1.17661 0.95202,1.42481 0.56848,0.24814 1.22918,0.14264 1.69195,-0.27039 l 0.9662,-0.77612 c 0.54023,-0.47376 1.33117,-0.52561 1.92857,-0.1264 0.59744,0.39915 0.85231,1.14994 0.62137,1.83029 l -0.34717,1.18912 c -0.20448,0.58562 -0.0489,1.23675 0.39786,1.66703 0.44682,0.43027 1.10334,0.56083 1.68086,0.33432 0.57742,-0.22652 0.96994,-0.76826 1.00508,-1.38759 l 0.13401,-1.23185 c 0.047,-0.71702 0.56985,-1.31304 1.27451,-1.45322 0.70471,-0.14019 1.41561,0.21041 1.73338,0.85483 l 0.5958,1.08605 c 0.26951,0.55868 0.83984,0.90941 1.45996,0.8977 0.31012,-0.006 0.60424,-0.10174 0.85193,-0.26726 z m -3.69164,-4.57251 a 4.7625004,4.7624999 56.25 0 1 -5.82482,-1.16067 l 2.22785,-1.48862 a 2.1166665,2.1166639 56.25 0 0 2.10572,0.41783 z m 0.87828,-0.59047 -1.4886,-2.22786 a 2.1166665,2.1166639 56.25 0 0 0.41784,-2.10574 l 2.23173,-1.49116 a 4.7625004,4.7624999 56.25 0 1 -1.16067,5.82483 z m 0.57031,-6.70304 -2.22786,1.48859 a 2.1166665,2.1166639 56.25 0 0 -2.10571,-0.41783 l -1.49121,-2.23175 a 4.7625004,4.7624999 56.25 0 1 5.82484,1.16068 z m -5.63217,3.76331 -2.23171,1.49116 a 4.7625004,4.7624999 56.25 0 1 1.16066,-5.8248 l 1.48863,2.22785 a 2.1166665,2.1166639 56.25 0 0 -0.41783,2.10573 z"
       id="path2000-0-2-0-0-4-1-2-2-6" />
  </g>
</svg>
